<svg width="104" height="660" viewBox="0 0 104 660" fill="none" xmlns="http://www.w3.org/2000/svg">
<rect width="60" height="60" transform="matrix(0.866025 0.5 -0.866025 0.5 51.9615 0)" fill="#BDCBFD"/>
<rect width="60" height="600" transform="matrix(0.866025 0.5 0 1 0 30)" fill="#93AAFC"/>
<rect width="60" height="600" transform="matrix(0.866025 -0.5 0 1 51.9615 60)" fill="#6580E1"/>
<g clip-path="url(#clip0_88_387)">
<path d="M82.973 31.0417L77.5603 27.9167L79.3646 26.875C79.8431 26.5987 80.1119 26.224 80.1119 25.8333C80.1119 25.4426 79.8431 25.0679 79.3646 24.7917L61.3224 14.375C60.8439 14.0987 60.1949 13.9435 59.5181 13.9435C58.8414 13.9435 58.1924 14.0987 57.7139 14.375L55.9097 15.4167L50.4971 12.2917C50.0185 12.0154 49.3695 11.8602 48.6928 11.8602C48.0161 11.8602 47.3671 12.0154 46.8886 12.2917L41.476 15.4167C33.6998 19.9062 32.2546 24.4885 37.5193 27.7406C36.9461 28.9926 36.8564 30.302 37.2564 31.5762C37.6564 32.8504 38.5364 34.0584 39.8341 35.1146L36.0633 37.2917L32.4549 35.2083L28.8464 37.2917L39.6717 43.5417L43.2802 41.4583L39.6717 39.375L43.4426 37.1979C45.2727 37.9463 47.3648 38.4539 49.5716 38.6848C51.7783 38.9157 54.046 38.8644 56.2146 38.5344C61.8474 41.5739 69.7842 40.7396 77.5603 36.25L82.973 33.125C83.4515 32.8487 83.7203 32.474 83.7203 32.0833C83.7203 31.6926 83.4515 31.3179 82.973 31.0417V31.0417ZM45.0844 17.5L48.6928 15.4167L52.3013 17.5L39.9785 24.6146C38.1165 21.9729 42.7407 18.8531 45.0844 17.5ZM45.0844 34.1667C41.1043 31.8687 41.1043 28.1312 45.0844 25.8333L59.5181 17.5L73.9519 25.8333L59.5181 34.1667C55.538 36.4646 49.0645 36.4646 45.0844 34.1667ZM61.6291 37.1146L73.9519 30L77.5603 32.0833L73.9519 34.1667C71.6082 35.5198 66.2046 38.1896 61.6291 37.1146Z" fill="black"/>
</g>
<defs>
<clipPath id="clip0_88_387">
<rect width="50" height="50" fill="white" transform="matrix(0.866025 0.5 -0.866025 0.5 52.3013 5)"/>
</clipPath>
</defs>
</svg>
