<svg width="104" height="660" viewBox="0 0 104 660" fill="none" xmlns="http://www.w3.org/2000/svg">
<rect width="60" height="60" transform="matrix(0.866025 0.5 -0.866025 0.5 51.9615 0)" fill="#BDCBFD"/>
<rect width="60" height="600" transform="matrix(0.866025 0.5 0 1 0 30)" fill="#93AAFC"/>
<rect width="60" height="600" transform="matrix(0.866025 -0.5 0 1 51.9615 60)" fill="#6580E1"/>
<g clip-path="url(#clip0_86_359)">
<path d="M45.0844 23.75L48.6928 25.8333L45.0844 27.9167L41.4759 25.8333L45.0844 23.75ZM37.8675 27.9167L41.4759 30L37.8675 32.0833L34.259 30L37.8675 27.9167ZM52.3012 27.9167L55.9097 30L52.3012 32.0833L48.6928 30L52.3012 27.9167ZM45.0843 32.0833L48.6928 34.1667L45.0843 36.25L41.4759 34.1667L45.0843 32.0833ZM59.5181 32.0833L63.1265 34.1667L59.5181 36.25L55.9097 34.1667L59.5181 32.0833ZM52.3012 36.25L55.9097 38.3333L52.3012 40.4167L48.6928 38.3333L52.3012 36.25Z" fill="black"/>
<path d="M21.6295 33.125L46.8886 47.7083C48.8786 48.8573 52.1154 48.8573 54.1055 47.7083L79.3645 33.125C81.3546 31.9761 81.3546 30.1073 79.3645 28.9583L75.7561 26.875L79.3645 24.7917L75.7561 22.7083L72.1477 24.7917L61.3223 18.5417L64.9308 16.4583L61.3223 14.375L57.7139 16.4583L54.1055 14.375C52.1154 13.2261 48.8786 13.2261 46.8886 14.375L21.6295 28.9583C19.6395 30.1073 19.6395 31.9761 21.6295 33.125ZM72.1477 33.125L50.4988 45.626L25.238 31.0417L46.8886 18.5417L72.1477 33.125Z" fill="black"/>
</g>
<defs>
<clipPath id="clip0_86_359">
<rect width="50" height="50" fill="white" transform="matrix(0.866025 0.5 -0.866025 0.5 52.3013 5)"/>
</clipPath>
</defs>
</svg>
