<svg width="104" height="660" viewBox="0 0 104 660" fill="none" xmlns="http://www.w3.org/2000/svg">
<rect width="60" height="60" transform="matrix(0.866025 0.5 -0.866025 0.5 51.9615 0)" fill="#BDCBFD"/>
<rect width="60" height="600" transform="matrix(0.866025 0.5 0 1 0 30)" fill="#93AAFC"/>
<rect width="60" height="600" transform="matrix(0.866025 -0.5 0 1 51.9615 60)" fill="#6580E1"/>
<g clip-path="url(#clip0_79_338)">
<path d="M33.0476 28.6161C28.9367 31.4521 29.4292 35.4333 34.6389 38.9193L31.348 40.8193L34.1707 42.449L37.4616 40.549C44.0894 43.8161 51.3072 44.049 56.3464 41.1396C60.6494 38.6552 60.5764 35.738 56.5412 31.7896L55.0933 30.3693L65.3828 24.4286C68.1216 26.3536 68.5357 28.4802 66.6115 30.188L70.5898 32.4849C74.4707 29.7255 73.859 25.7849 68.7901 22.4615L72.0593 20.574L69.2366 18.9443L65.8997 20.8708C60.0297 18.2005 53.0663 18.0615 48.5088 20.6927C44.5738 22.9646 44.4033 26.0818 47.816 29.4083L49.0285 30.6146L38.1192 36.913C35.4697 34.8521 35.034 32.6318 37.0015 30.899L33.0476 28.6161V28.6161ZM52.6062 27.9208C50.4953 25.8802 50.5088 24.1318 52.6495 22.8958C55.2043 21.4208 58.9959 21.4318 62.4681 22.8521L53.0095 28.313L52.6035 27.9224L52.6062 27.9208ZM51.8457 33.3318C54.4546 35.8474 54.5331 37.5677 52.0704 38.9896C49.1015 40.7036 44.8878 40.5552 40.8689 38.5818L51.1394 32.6521L51.8485 33.3302L51.8457 33.3318Z" fill="black"/>
</g>
<defs>
<clipPath id="clip0_79_338">
<rect width="50" height="50" fill="white" transform="matrix(0.866025 0.5 -0.866025 0.5 52.3013 5)"/>
</clipPath>
</defs>
</svg>
