<svg width="104" height="100" viewBox="0 0 104 100" fill="none" xmlns="http://www.w3.org/2000/svg">
<rect width="60" height="60" transform="matrix(0.866025 0.5 -0.866025 0.5 51.9614 0)" fill="#BDCBFD"/>
<rect width="60" height="40" transform="matrix(0.866025 0.5 0 1 0 30)" fill="#93AAFC"/>
<rect width="60" height="40" transform="matrix(0.866025 -0.5 0 1 51.9614 60)" fill="#6580E1"/>
<g clip-path="url(#clip0_106_397)">
<path d="M72.1476 26.875H67.0236V23.5625L46.8705 35.1979L43.2982 33.1354L63.4513 21.5H57.7139V18.5417H72.1476V26.875ZM70.3434 36.25L50.497 47.7083C48.5123 48.8542 45.2648 48.8542 43.2801 47.7083L21.6295 35.2083C19.6268 34.0521 19.6448 32.1875 21.6295 31.0417L41.4759 19.5833C43.4786 18.4271 46.6901 18.4271 48.6928 19.5833L54.1054 22.7083L50.497 24.7917L45.0843 21.6667L25.2379 33.125L46.8885 45.625L66.735 34.1667L61.3223 31.0417L64.9307 28.9583L70.3434 32.0833C72.328 33.2292 72.3461 35.0938 70.3434 36.25Z" fill="black"/>
</g>
<defs>
<clipPath id="clip0_106_397">
<rect width="50" height="50" fill="white" transform="matrix(0.866025 0.5 -0.866025 0.5 52.3013 5)"/>
</clipPath>
</defs>
</svg>